<svg xmlns="http://www.w3.org/2000/svg" width="13.656" height="12.891" viewBox="0 0 13.656 12.891"><defs><style>.a{fill:#c4314b;}</style></defs><path class="a" d="M7.508.109a1.448,1.448,0,0,0-.766.219A1.459,1.459,0,0,0,6.188.9L.859,10.789a1.486,1.486,0,0,0-.18.711,1.374,1.374,0,0,0,.125.578,1.5,1.5,0,0,0,.32.477,1.619,1.619,0,0,0,.477.328A1.453,1.453,0,0,0,2.18,13H12.836a1.453,1.453,0,0,0,.578-.117,1.6,1.6,0,0,0,.8-.8,1.453,1.453,0,0,0,.117-.578,1.485,1.485,0,0,0-.18-.711L8.828.9a1.459,1.459,0,0,0-.555-.57A1.448,1.448,0,0,0,7.508.109Zm0,9.641a.652.652,0,0,0-.281.063.956.956,0,0,0-.406.406.664.664,0,0,0,0,.562.857.857,0,0,0,.172.242.827.827,0,0,0,.234.164.664.664,0,0,0,.563,0,.775.775,0,0,0,.406-.406.664.664,0,0,0,0-.562.825.825,0,0,0-.164-.234.858.858,0,0,0-.242-.172A.652.652,0,0,0,7.508,9.75Zm0-8.641a.45.45,0,0,1,.273.086.95.95,0,0,1,.2.211,1.527,1.527,0,0,1,.148.273,2.79,2.79,0,0,0,.125.25q.117.227.4.742t.656,1.2q.383.687.828,1.5t.891,1.633q.445.82.867,1.594t.742,1.391q.32.617.516,1.023a1.924,1.924,0,0,1,.188.484.507.507,0,0,1-.5.5H2.18a.507.507,0,0,1-.5-.5A9.872,9.872,0,0,1,2.2,10.414q.281-.523.563-1.063.367-.687.727-1.375T4.2,6.594q.375-.711.75-1.406T5.7,3.773q.273-.5.547-.992T6.8,1.789q.062-.109.125-.211a1.406,1.406,0,0,1,.141-.2,1.064,1.064,0,0,1,.188-.187A.4.4,0,0,1,7.508,1.109ZM7.008,9h1V4h-1Z" transform="translate(-0.68 -0.109)"/></svg>