<svg xmlns="http://www.w3.org/2000/svg" width="10.188" height="10.188" viewBox="0 0 10.188 10.188"><defs><style>.a{fill:#237b4b;}</style></defs><path class="a" d="M1.414.906a.481.481,0,0,0-.352.148.484.484,0,0,0-.109.539.414.414,0,0,0,.1.164L5.3,6,1.055,10.242a.5.5,0,0,0,.008.7.48.48,0,0,0,.352.148.591.591,0,0,0,.188-.031.5.5,0,0,0,.164-.109L6.008,6.711l4.242,4.242a.5.5,0,0,0,.711-.711L6.719,6l4.242-4.242a.5.5,0,0,0,.109-.164.591.591,0,0,0,.031-.187.48.48,0,0,0-.148-.352.5.5,0,0,0-.7-.008L6.008,5.289,1.766,1.047A.414.414,0,0,0,1.6.945.484.484,0,0,0,1.414.906Z" transform="translate(-0.914 -0.906)"/></svg>