<svg xmlns="http://www.w3.org/2000/svg" width="15" height="15" viewBox="0 0 15 15"><defs><style>.a{fill:#237b4b;}</style></defs><g transform="translate(-13 -3624)"><path class="a" d="M8.492,0a7.161,7.161,0,0,1,1.984.273,7.421,7.421,0,0,1,1.8.758,7.548,7.548,0,0,1,2.688,2.688,7.419,7.419,0,0,1,.758,1.8A7.164,7.164,0,0,1,15.992,7.5a7.247,7.247,0,0,1-.273,1.992,7.449,7.449,0,0,1-.758,1.789A7.375,7.375,0,0,1,13.789,12.8a7.561,7.561,0,0,1-1.516,1.172,7.858,7.858,0,0,1-1.8.758A7.357,7.357,0,0,1,8.492,15,7.442,7.442,0,0,1,6.5,14.734a7.9,7.9,0,0,1-1.789-.758,7.43,7.43,0,0,1-2.7-2.7,7.894,7.894,0,0,1-.758-1.789A7.443,7.443,0,0,1,.992,7.5a7.358,7.358,0,0,1,.266-1.984,7.857,7.857,0,0,1,.758-1.8A7.555,7.555,0,0,1,3.188,2.2,7.376,7.376,0,0,1,4.711,1.031,7.453,7.453,0,0,1,6.5.273,7.243,7.243,0,0,1,8.492,0Zm0,1a6.394,6.394,0,0,0-1.734.234A6.312,6.312,0,0,0,5.2,1.891,6.509,6.509,0,0,0,3.891,2.906,6.476,6.476,0,0,0,2.219,5.773,6.514,6.514,0,0,0,1.992,7.5a6.6,6.6,0,0,0,.227,1.734,6.736,6.736,0,0,0,.656,1.555A6.56,6.56,0,0,0,5.2,13.117a6.735,6.735,0,0,0,1.555.656A6.6,6.6,0,0,0,8.492,14a6.394,6.394,0,0,0,3.281-.883A6.6,6.6,0,0,0,13.086,12.1,6.513,6.513,0,0,0,14.1,10.789a6.312,6.312,0,0,0,.656-1.555A6.392,6.392,0,0,0,14.992,7.5a6.308,6.308,0,0,0-.234-1.727A6.148,6.148,0,0,0,14.1,4.219a6.561,6.561,0,0,0-2.328-2.328,6.148,6.148,0,0,0-1.555-.656A6.31,6.31,0,0,0,8.492,1Zm4.352,4.852L8.109,10.625,5.141,7.656l.7-.711L8.109,9.211l4.031-4.063Z" transform="translate(12.008 3624)"/></g></svg>